{
	"asset":{
		"generator":"Khronos glTF Blender I/O v4.3.47",
		"version":"2.0"
	},
	"extensionsUsed":[
		"KHR_materials_specular"
	],
	"scene":0,
	"scenes":[
		{
			"name":"Scene",
			"nodes":[
				0
			]
		}
	],
	"nodes":[
		{
			"mesh":0,
			"name":"77767",
			"scale":[
				0.5,
				0.5,
				0.5
			]
		}
	],
	"materials":[
		{
			"doubleSided":true,
			"extensions":{
				"KHR_materials_specular":{
					"specularColorFactor":[
						1.505881905555725,
						1.505881905555725,
						1.505881905555725
					]
				}
			},
			"name":"Nozzle_And_PDCs",
			"pbrMetallicRoughness":{
				"baseColorTexture":{
					"index":0
				},
				"metallicFactor":0,
				"roughnessFactor":0.2254033088684082
			}
		},
		{
			"doubleSided":true,
			"extensions":{
				"KHR_materials_specular":{
					"specularColorFactor":[
						1.505881905555725,
						1.505881905555725,
						1.505881905555725
					]
				}
			},
			"name":"Fore_Section",
			"normalTexture":{
				"index":1,
				"scale":0
			},
			"pbrMetallicRoughness":{
				"baseColorTexture":{
					"index":2
				},
				"metallicFactor":0,
				"roughnessFactor":0.2254033088684082
			}
		}
	],
	"meshes":[
		{
			"name":"77767",
			"primitives":[
				{
					"attributes":{
						"POSITION":0,
						"NORMAL":1,
						"TEXCOORD_0":2
					},
					"indices":3,
					"material":0
				},
				{
					"attributes":{
						"POSITION":4,
						"NORMAL":5,
						"TEXCOORD_0":6
					},
					"indices":7,
					"material":1
				},
				{
					"attributes":{
						"POSITION":8,
						"NORMAL":9,
						"TEXCOORD_0":10
					},
					"indices":11,
					"material":0
				}
			]
		}
	],
	"textures":[
		{
			"sampler":0,
			"source":0
		},
		{
			"sampler":0,
			"source":1
		},
		{
			"sampler":0,
			"source":2
		}
	],
	"images":[
		{
			"mimeType":"image/png",
			"name":"Nozzle_And_PDCs_baseColor",
			"uri":"Nozzle_And_PDCs_baseColor.png"
		},
		{
			"mimeType":"image/png",
			"name":"Fore_Section_normal",
			"uri":"Fore_Section_normal.png"
		},
		{
			"mimeType":"image/png",
			"name":"Fore_Section_baseColor",
			"uri":"Fore_Section_baseColor.png"
		}
	],
	"accessors":[
		{
			"bufferView":0,
			"componentType":5126,
			"count":41527,
			"max":[
				220.14463806152344,
				244.47352600097656,
				786.3876953125
			],
			"min":[
				-220.1446533203125,
				-244.47352600097656,
				205.08099365234375
			],
			"type":"VEC3"
		},
		{
			"bufferView":1,
			"componentType":5126,
			"count":41527,
			"type":"VEC3"
		},
		{
			"bufferView":2,
			"componentType":5126,
			"count":41527,
			"type":"VEC2"
		},
		{
			"bufferView":3,
			"componentType":5123,
			"count":60969,
			"type":"SCALAR"
		},
		{
			"bufferView":4,
			"componentType":5126,
			"count":52935,
			"max":[
				303.5339660644531,
				239.89183044433594,
				725.6275024414062
			],
			"min":[
				-303.53399658203125,
				-239.8916473388672,
				-1006.8709716796875
			],
			"type":"VEC3"
		},
		{
			"bufferView":5,
			"componentType":5126,
			"count":52935,
			"type":"VEC3"
		},
		{
			"bufferView":6,
			"componentType":5126,
			"count":52935,
			"type":"VEC2"
		},
		{
			"bufferView":7,
			"componentType":5123,
			"count":67917,
			"type":"SCALAR"
		},
		{
			"bufferView":8,
			"componentType":5126,
			"count":363125,
			"max":[
				399.2649841308594,
				343.1476135253906,
				1004.6024169921875
			],
			"min":[
				-399.2649841308594,
				-342.7890319824219,
				-671.4744262695312
			],
			"type":"VEC3"
		},
		{
			"bufferView":9,
			"componentType":5126,
			"count":363125,
			"type":"VEC3"
		},
		{
			"bufferView":10,
			"componentType":5126,
			"count":363125,
			"type":"VEC2"
		},
		{
			"bufferView":11,
			"componentType":5125,
			"count":469851,
			"type":"SCALAR"
		}
	],
	"bufferViews":[
		{
			"buffer":0,
			"byteLength":498324,
			"byteOffset":0,
			"target":34962
		},
		{
			"buffer":0,
			"byteLength":498324,
			"byteOffset":498324,
			"target":34962
		},
		{
			"buffer":0,
			"byteLength":332216,
			"byteOffset":996648,
			"target":34962
		},
		{
			"buffer":0,
			"byteLength":121938,
			"byteOffset":1328864,
			"target":34963
		},
		{
			"buffer":0,
			"byteLength":635220,
			"byteOffset":1450804,
			"target":34962
		},
		{
			"buffer":0,
			"byteLength":635220,
			"byteOffset":2086024,
			"target":34962
		},
		{
			"buffer":0,
			"byteLength":423480,
			"byteOffset":2721244,
			"target":34962
		},
		{
			"buffer":0,
			"byteLength":135834,
			"byteOffset":3144724,
			"target":34963
		},
		{
			"buffer":0,
			"byteLength":4357500,
			"byteOffset":3280560,
			"target":34962
		},
		{
			"buffer":0,
			"byteLength":4357500,
			"byteOffset":7638060,
			"target":34962
		},
		{
			"buffer":0,
			"byteLength":2905000,
			"byteOffset":11995560,
			"target":34962
		},
		{
			"buffer":0,
			"byteLength":1879404,
			"byteOffset":14900560,
			"target":34963
		}
	],
	"samplers":[
		{
			"magFilter":9729,
			"minFilter":9987
		}
	],
	"buffers":[
		{
			"byteLength":16779964,
			"uri":"ship2.bin"
		}
	]
}
